<?xml version="1.0" standalone="no"?><!DOCTYPE svg PUBLIC "-//W3C//DTD SVG 1.1//EN" "http://www.w3.org/Graphics/SVG/1.1/DTD/svg11.dtd"><svg t="1630376767820" class="icon" viewBox="0 0 1024 1024" version="1.1" xmlns="http://www.w3.org/2000/svg" p-id="2202" data-spm-anchor-id="a313x.7781069.0.i2" xmlns:xlink="http://www.w3.org/1999/xlink" width="48" height="48"><defs><style type="text/css"></style></defs><path d="M513.8944 958.4128c-70.2976 0-139.6224-16.1792-202.0352-47.4112-24.7808 6.7072-62.8224 16.2816-99.584 25.5488-19.9168 5.0176-39.7824 10.0352-57.7536 14.6432-20.6336 5.3248-42.1888-0.3072-57.6512-14.9504-15.4112-14.6944-22.1184-35.8912-17.8688-56.7296 9.1648-45.056 17.0496-90.9312 23.3472-127.7952 2.7648-15.9744 5.2224-30.4128 7.3728-42.496-35.8912-71.6288-52.0192-151.9104-46.7968-232.448 15.104-231.936 209.2032-416.9728 441.9072-421.3248 123.8528-2.4576 240.3328 44.5952 327.8848 132.1472 87.552 87.552 134.5024 203.9808 132.1984 327.8848l-30.72-0.5632 30.72 0.5632c-4.352 233.1136-189.696 427.264-421.9904 442.0096-9.6768 0.6144-19.3536 0.9216-29.0304 0.9216z m-202.2912-108.9536c9.472 0 18.9952 2.2016 27.7504 6.6048 61.3376 30.6688 130.4064 44.544 199.7312 40.1408 200.6528-12.7488 360.7552-180.48 364.4928-381.8496 1.9968-107.0592-38.5536-207.6672-114.176-283.2896-75.6224-75.6224-176.2816-116.224-283.2896-114.176-201.1648 3.7376-368.8448 163.5328-381.8496 363.8784-4.5056 69.6832 9.3696 139.0592 40.2432 200.6016 6.0928 12.1856 8.0896 25.6 5.6832 38.7584-2.1504 11.9296-4.608 26.1632-7.3216 41.9328-6.4 37.2736-14.336 83.712-23.7056 129.6896 18.0736-4.6592 38.0416-9.728 58.0608-14.7456 36.4544-9.1648 74.1376-18.688 98.2528-25.344 5.2736-1.4848 10.7008-2.2016 16.128-2.2016z" fill="#ff8198" p-id="2203" data-spm-anchor-id="a313x.7781069.0.i0" class="selected"></path><path d="M513.4848 775.7312c-122.8288 0-222.7712-99.9424-222.7712-222.7712h61.44c0 88.9344 72.3456 161.3312 161.3312 161.3312S674.816 641.8944 674.816 552.96h61.44c0 122.8288-99.9424 222.7712-222.7712 222.7712z" fill="#ff8198" p-id="2204" data-spm-anchor-id="a313x.7781069.0.i1" class="selected"></path></svg>