<?xml version="1.0" standalone="no"?><!DOCTYPE svg PUBLIC "-//W3C//DTD SVG 1.1//EN" "http://www.w3.org/Graphics/SVG/1.1/DTD/svg11.dtd"><svg t="1630376823455" class="icon" viewBox="0 0 1024 1024" version="1.1" xmlns="http://www.w3.org/2000/svg" p-id="3155" xmlns:xlink="http://www.w3.org/1999/xlink" width="48" height="48"><defs><style type="text/css"></style></defs><path d="M961.0752 354.5088l-94.4128-241.4592c-9.2672-23.7568-31.744-39.0656-57.2416-39.0656H226.7648c-25.4976 0-47.9744 15.36-57.2416 39.1168L75.3664 354.6624c-20.0704 51.5584-14.0288 110.08 16.2304 156.6208 12.1856 18.7904 27.4944 34.4576 45.0048 46.6432v334.592c0 32.8704 26.624 59.648 59.3408 59.648h644.608c32.7168 0 59.3408-26.7264 59.3408-59.648v-334.5408a168.8064 168.8064 0 0 0 45.0048-46.6944c30.3104-46.592 36.352-105.216 16.1792-156.7744z m-122.5728 536.2176H198.0416v-306.4832a172.40576 172.40576 0 0 0 33.9456 3.4304c57.856 0 110.6432-28.0576 143.1552-73.216a176.23552 176.23552 0 0 0 143.1552 73.216c57.856 0 110.592-28.0576 143.1552-73.216a176.23552 176.23552 0 0 0 143.1552 73.216 172.40576 172.40576 0 0 0 33.8944-3.4304v306.4832z m54.9376-412.928c-18.944 29.184-49.408 46.7968-83.5584 48.3328-1.7408 0.1024-3.4816 0.1024-5.2736 0.1024-49.5616 0-93.3888-31.5904-109.056-78.592a35.94752 35.94752 0 0 0-34.0992-24.6272c-15.4624 0-29.184 9.8816-34.0992 24.6272-15.6672 47.0016-59.4944 78.592-109.056 78.592s-93.3888-31.5904-109.056-78.5408a35.8656 35.8656 0 0 0-34.048-24.6272c-15.4624 0-29.184 9.8816-34.0992 24.6272a114.81088 114.81088 0 0 1-109.056 78.592c-1.792 0-3.584-0.0512-5.3248-0.1024-34.1504-1.536-64.6144-19.1488-83.5584-48.2816a111.25248 111.25248 0 0 1-10.496-100.8128L226.816 135.5264h582.656l94.4128 241.4592c12.9536 33.0752 9.0624 70.8096-10.4448 100.8128z" fill="#4D5254" p-id="3156"></path><path d="M330.0352 284.7232h376.4736v61.44H330.0352z" fill="#00A0E9" p-id="3157"></path></svg>